<svg xmlns="http://www.w3.org/2000/svg" viewBox="0 0 750 500"><path d="M485.01 280.97h5.62v42.05h-5.62z" style="fill:#e0e0e0" transform="rotate(-90 487.825 301.995)"/><path d="M472.53 299.42a13.4 13.4 0 0 1 0 5.26 12.9 12.9 0 0 1 0-5.26M471.61 299.31a13.4 13.4 0 0 1 0 5.26 13.4 13.4 0 0 1 0-5.26M505.59 299.42a12.9 12.9 0 0 1 0 5.26 13.4 13.4 0 0 1 0-5.26" style="fill:#fafafa"/><ellipse cx="504.68" cy="301.94" rx=".26" ry="2.63" style="fill:#fafafa"/><path d="M499.18 302.17c0 .14-4.81.26-10.75.26s-10.76-.12-10.76-.26a107 107 0 0 1 10.76-.27 107 107 0 0 1 10.75.27" style="fill:#fafafa"/><path d="M482.02 309.07h11.23v42.05h-11.23z" style="fill:#e0e0e0" transform="rotate(-90 487.64 330.09)"/><path d="M509.2 332.55a1 1 0 0 1-.23.13c-.15.08-.39.19-.7.32a12 12 0 0 1-2.85.82 7.38 7.38 0 0 1-4.62-.66 6.1 6.1 0 0 1-2.2-2 4.64 4.64 0 0 1-.77-3.24 3.4 3.4 0 0 1 .78-1.67 2.17 2.17 0 0 1 1.77-.8 2.53 2.53 0 0 1 1.78 1 3.47 3.47 0 0 1 .82 1.91 5.13 5.13 0 0 1-1.45 4 6.44 6.44 0 0 1-4 2 10.8 10.8 0 0 1-4.7-.58 8.7 8.7 0 0 1-4.13-2.78 4.5 4.5 0 0 1-1-2.42 3.15 3.15 0 0 1 .9-2.53 2 2 0 0 1 1.31-.57 2.36 2.36 0 0 1 1.38.38 3.64 3.64 0 0 1 1.54 2.27 5.29 5.29 0 0 1-1.65 4.95 8.3 8.3 0 0 1-4.74 1.93 11.8 11.8 0 0 1-4.91-.49 6.78 6.78 0 0 1-3.73-2.9 5 5 0 0 1-.47-4.46 2.34 2.34 0 0 1 1.72-1.45 2.66 2.66 0 0 1 2.12.51 3.52 3.52 0 0 1 1 3.78 6.57 6.57 0 0 1-2.12 3 9.64 9.64 0 0 1-5.77 2.24 9.26 9.26 0 0 1-4.56-1 9 9 0 0 1-2.39-1.77 6 6 0 0 1-.5-.58c-.11-.14-.16-.21-.15-.22a10.7 10.7 0 0 0 3.13 2.39 9.15 9.15 0 0 0 4.46.92 9.26 9.26 0 0 0 5.54-2.23 6.16 6.16 0 0 0 2-2.81 3.09 3.09 0 0 0-.88-3.32 2.25 2.25 0 0 0-1.76-.42 1.88 1.88 0 0 0-1.38 1.19 4.51 4.51 0 0 0 .46 4 6.26 6.26 0 0 0 3.48 2.67 11 11 0 0 0 4.69.45 7.7 7.7 0 0 0 4.43-1.8 4.77 4.77 0 0 0 1.5-4.44 3.13 3.13 0 0 0-1.31-1.94 1.61 1.61 0 0 0-2.05.13 2.6 2.6 0 0 0-.74 2.1 4 4 0 0 0 .85 2.15 8.2 8.2 0 0 0 3.85 2.59 10.3 10.3 0 0 0 4.47.57 5.93 5.93 0 0 0 3.76-1.8 4.7 4.7 0 0 0 1.35-3.62 2.69 2.69 0 0 0-2.18-2.52 1.83 1.83 0 0 0-1.46.66 3.1 3.1 0 0 0-.7 1.48 4.3 4.3 0 0 0 .68 3 5.84 5.84 0 0 0 2.06 1.91 7.23 7.23 0 0 0 4.45.71 13.3 13.3 0 0 0 2.84-.71c.65-.31.97-.45.98-.43" style="fill:#fafafa"/><path d="M479.77 295.57h19.49v38.29h-19.49z" style="fill:#ebebeb" transform="rotate(-90 489.515 314.715)"/><path d="M476.73 305.64a82 82 0 0 1 .27 9.43 82 82 0 0 1-.27 9.43 87 87 0 0 1-.26-9.43 87 87 0 0 1 .26-9.43M479.64 305.39a85 85 0 0 1 .26 9.31 85 85 0 0 1-.26 9.32 80 80 0 0 1-.27-9.32 80 80 0 0 1 .27-9.31M504.33 304.77a89 89 0 0 1 .27 9.8 89 89 0 0 1-.27 9.81 94 94 0 0 1-.26-9.81 94 94 0 0 1 .26-9.8M500.92 305a85 85 0 0 1 .27 9.55 85 85 0 0 1-.27 9.56 86 86 0 0 1-.26-9.56 86 86 0 0 1 .26-9.55M242.39 83.06h258.14v171.23H242.39z" style="fill:#e0e0e0"/><path d="M36.22 95.57a43.74 43.74 0 1 1 44.44 43.23 43.9 43.9 0 0 1-44.44-43.23m64.64-1a20.91 20.91 0 1 0-20.57 21.35 21 21 0 0 0 20.57-21.4Z" style="fill:#f5f5f5"/><path d="M36.22 95.57a43.9 43.9 0 0 1 43-44.64l.37 22.92a21 21 0 0 0 .67 42l.37 22.93a43.89 43.89 0 0 1-44.41-43.21" style="fill:#e0e0e0"/><path d="M75.32 47.4c28.22-.46 50.72 21.44 51.17 49.78l-26.7.43c-.21-13.55-10.52-22.08-24-21.86Z" style="fill:#ebebeb"/><path d="M245.45 448c-1.12-1-3.63-4-1.69-7.57.7-1.3 2.21-1.94 3.57-2.52a14.4 14.4 0 0 0 3.93-2c2.12-1.81 2.71-4.82 4.12-7.23 1.62-2.77 4.65-4.85 7.84-4.7 3.66.17 6.71 3.15 8.1 6.56s1.43 7.2 1.46 10.88c0 2-.08 4.33-1.57 5.7s-3.45 1.28-5.32 1.23l-20-.62" style="fill:#f5f5f5"/><path d="M283.71 393h-52.6l9.47 56.5a6.31 6.31 0 0 0 4.49 5l.19.05c.15 0 .31.09.47.12a7 7 0 0 0 1.07.13v.05h23.71a6.7 6.7 0 0 0 1.28-.13 6.33 6.33 0 0 0 5.32-5.52l4.57-38.93.21-1.55 1.81-15.41Zm-9.93 36h-5.39l.54-16.39h6.25Zm1.93-16.39h5.17L279 429h-4.64Zm-15.42 34.57-.29-14.24h7.77l-.47 14.25Zm-8.41-14.25h7.56l.33 14.25H253Zm.59 14.25h-6.33c-.61-3.85-1.39-8.85-2.24-14.25h7.46Zm-.89-18.18-1.28-16.39h8.7l.38 16.39Zm8.29 0-.38-16.39h8.92l-.55 16.39Zm-.47-20.33-.35-15.18h10l-.5 15.18Zm-.52 0H250l-1.18-15.18h9.71Zm-9.4 0h-9.4c-.33-2.09-.65-4.08-.93-5.86-1-6.14-1.35-8.45-1.56-9.32h10.71Zm.3 3.94 1.28 16.39h-7.77c-.27-1.66-.53-3.34-.8-5-.6-3.87-1.21-7.74-1.79-11.36Zm-7 16.39h-5.08l-2.75-16.39h5.24c.81 5.07 1.67 10.71 2.57 16.39Zm.61 3.93c.78 4.93 1.54 9.79 2.24 14.25h-4.88l-2.39-14.25Zm24.41 14.25.48-14.25h5.19l-1.22 14.25Zm1.28-38.51.51-15.18h7.25l-1.3 15.18Zm-32-15.18c.21 1.1 1.17 7.07 2.45 15.18h-5.28l-2.54-15.18Zm39.72 53.69h-4.06l1.26-14.24h4.52Zm4.52-38.51H276l1.3-15.18h5.78ZM653.01 109.74h11.33v45.24h-11.33zM669.67 119.61H681v35.37h-11.33zM686.58 127.69h11.33v27.29h-11.33zM702.23 138.78h11.33v16.21h-11.33z" style="fill:#e0e0e0"/><path d="M695.33 211.25a39.18 39.18 0 0 0-55.09 1.86 38.63 38.63 0 0 0 1.87 54.77 39.19 39.19 0 0 0 55.1-1.87 38.62 38.62 0 0 0-1.88-54.76m-13 41a18.74 18.74 0 0 1-26.34.89 18.48 18.48 0 0 1-.9-26.19 18.76 18.76 0 0 1 26.35-.89 18.47 18.47 0 0 1 .9 26.15Z" style="fill:#f5f5f5"/><path d="M640.24 213.11a39.18 39.18 0 0 1 55.09-1.86L681.45 226a18.76 18.76 0 0 0-26.35.89 18.48 18.48 0 0 0 .9 26.19l-13.89 14.78a38.63 38.63 0 0 1-1.87-54.75" style="fill:#ebebeb"/><path d="M693.74 204.91c19.24 17.87 21.55 46.92 3.57 66L677.79 254c8.6-9.14 10.46-21.35 1.26-29.9Z" style="fill:#fafafa"/><rect width="110.45" height="31.11" x="165.4" y="275.34" rx="3.23" style="fill:#e0e0e0"/><ellipse cx="183.43" cy="291.86" rx="6.73" ry="6.76" style="fill:#f5f5f5"/><path d="M187.21 289.56a28 28 0 0 1-3.62 3.91c-.3.3-.6.58-.89.86l-.18.18-.17-.18a18.8 18.8 0 0 1-2.7-3.07 19.4 19.4 0 0 1 3.06 2.71h-.36l.88-.87a27.6 27.6 0 0 1 3.98-3.54" style="fill:#e0e0e0"/><path d="M265 288.52c0 .14-14.83.26-33.11.26s-33.11-.12-33.11-.26 14.82-.26 33.11-.26 33.11.11 33.11.26M265.27 294.15c0 .15-14.83.26-33.11.26s-33.11-.11-33.11-.26 14.82-.26 33.11-.26 33.11.11 33.11.26" style="fill:#fafafa"/><path d="m614.07 298.25-2.02 157h90.33V300.39z" style="fill:#f5f5f5"/><path d="m662.74 299.43-.8 155.82h40.44V300.39zM616.91 301.08v32.11h42.79V302.6z" style="fill:#e0e0e0"/><path d="M631.66 309.91v4.75h13.09v-5.18zM631.66 318.64h13.52v1.94h-13.52z" style="fill:#f5f5f5"/><path d="M616.91 413.61v32.11h42.79v-30.59z" style="fill:#e0e0e0"/><path d="M631.66 422.44v4.75h13.09v-5.18zM631.66 431.17h13.52v1.94h-13.52z" style="fill:#f5f5f5"/><path d="M616.91 337.28v32.11h42.79V338.8z" style="fill:#e0e0e0"/><path d="M631.66 346.11v4.75h13.09v-5.18zM631.66 354.84h13.52v1.94h-13.52z" style="fill:#f5f5f5"/><path d="M616.35 375.73h42.79v32.11h-42.79z" style="fill:#e0e0e0"/><path d="M631.39 390.2v4.46h12.31v-4.86zM631.39 398.41h12.71v1.82h-12.71z" style="fill:#f5f5f5"/><path d="M586.83 299.69c23.26-9.67 43.67-23.32 59.26-40.24 19.44-21.1 26.59-32.89 34.95-54.37 14.5-37.26 3-71.25-7.72-102.19C661.9 70 625.57 44.09 584 37s-86.6 4.14-117.72 27.37c-19.76 14.76-34.35 34-56.55 46.31-36.44 20.21-85 17.52-128.55 11.22s-88.83-15.33-131.3-5.29c-53.32 12.61-87.16 57.32-87.42 102.1-.33 59.69 62.79 101.4 120.35 114.89a661.3 661.3 0 0 0 164.92 17.65c105.71-2.25 195.46-33.43 239.1-51.56" style="fill:#ebebeb"/><path d="M705.78 453.89c0 .15-148.11.26-330.76.26s-330.8-.11-330.8-.26 148.08-.26 330.8-.26 330.76.12 330.76.26" style="fill:#263238"/><path d="M226.92 87.35h267.33V262.7H226.92z" style="fill:#fafafa"/><path d="M494.25 262.7c0-1.69-.08-68.4-.21-175.35l.21.21H226.94l.26-.26v175.35l-.24-.24 267.33.24-267.33.24h-.24V87.04h.28l267.31.06h.21v.2c-.19 107-.27 173.7-.27 175.4" style="fill:#263238"/><path d="m308.62 184.18 26.29.37c-.2 14-12 25.43-26.29 25.43h-.16Z" style="fill:#455a64"/><path d="M352.1 219.79a3 3 0 0 1-.57 0h-1.6l-5.88.07H344l-.05-.06c-2.35-2.95-5.37-6.77-8.67-10.93l-7-8.91.14.06-7.74-.07-2.18.05a3.6 3.6 0 0 1-.77 0 5 5 0 0 1 .77-.05h2.16l7.74-.07h.08v.06l7 8.89 8.6 11-.12-.06 5.88.07h1.6a2.6 2.6 0 0 1 .66-.05M361.53 222.82c0 .11-3.81.2-8.51.2s-8.51-.09-8.51-.2 3.81-.2 8.51-.2 8.51.09 8.51.2M361.53 226c0 .11-3.81.2-8.51.2s-8.51-.09-8.51-.2 3.81-.2 8.51-.2 8.51.06 8.51.2" style="fill:#263238"/><path d="m304.46 180.44-.37 25.8c-14.28-.2-25.93-11.78-25.93-25.8s11.87-25.79 26.3-25.79 26.3 11.64 26.3 25.79Z" style="fill:#ff725e"/><path d="M294.19 172a2 2 0 0 1-.45.1l-1.31.21-4.72.67h-.08l-.06-.06-6.3-6.13c-3-3-5.75-5.67-7.71-7.64l-2.3-2.35a7 7 0 0 1-.81-.9 6.4 6.4 0 0 1 .92.79l2.39 2.25c2 1.92 4.76 4.59 7.79 7.56l6.25 6.18h-.14l4.75-.52 1.31-.12a1.3 1.3 0 0 1 .47-.04M263.79 154.78c0 .11-3.81.2-8.51.2s-8.5-.09-8.5-.2 3.8-.2 8.5-.2 8.51.09 8.51.2M263.79 157.93c0 .11-3.81.2-8.51.2s-8.5-.09-8.5-.2 3.8-.2 8.5-.2 8.51.09 8.51.2" style="fill:#263238"/><path d="m396.45 129.48-.1-16a20.5 20.5 0 0 0-13.23 5.16 19 19 0 0 0-6.37 16.6 22 22 0 0 0 .38 2.33.13.13 0 0 0 0 .06l19.31-4.35Z" style="fill:#ff725e"/><g style="opacity:.30000000000000004"><path d="m396.45 129.48-.1-16a20.5 20.5 0 0 0-13.23 5.16 19 19 0 0 0-6.37 16.6 22 22 0 0 0 .38 2.33.13.13 0 0 0 0 .06l19.31-4.35Z" style="fill:#fff"/></g><path d="M416.36 124.55a19 19 0 0 0-15.59-10.91l-.61-.06h-1.66l.11 16v3.76l19.39 4.19a18.6 18.6 0 0 0 .43-4.15 20.7 20.7 0 0 0-2.07-8.83" style="fill:#ff725e"/><path d="M416.36 124.55a19 19 0 0 0-15.59-10.91l-.61-.06h-1.66l.11 16v3.76l19.39 4.19a18.6 18.6 0 0 0 .43-4.15 20.7 20.7 0 0 0-2.07-8.83" style="opacity:.30000000000000004"/><path d="m397.49 135.25-19.32 4.35a19.8 19.8 0 0 0 38.66-.13l-19.32-4.22" style="fill:#ff725e"/><path d="M472.67 132.37c0 .14-10 .26-22.3.26s-22.31-.12-22.31-.26 10-.27 22.31-.27 22.3.12 22.3.27M472.67 127.28c0 .14-10 .26-22.3.26s-22.31-.12-22.31-.26 10-.26 22.31-.26 22.3.12 22.3.26M472.67 122.2c0 .14-10 .26-22.3.26s-22.31-.12-22.31-.26 10-.26 22.31-.26 22.3.11 22.3.26M472.67 137.1c0 .14-10 .26-22.3.26s-22.31-.12-22.31-.26 10-.27 22.31-.27 22.3.17 22.3.27M458.86 142.24c0 .15-6.86.26-15.32.26s-15.32-.11-15.32-.26 6.86-.26 15.32-.26 15.32.12 15.32.26" style="fill:#263238"/><path d="M381.29 179.05h4.59v51.31h-4.59zM390.16 196.47h4.59v33.88h-4.59zM399.03 185.42h4.59v45.19h-4.59zM407.9 181.03h4.59v49.33h-4.59zM416.76 197.51h4.59v32.84h-4.59zM425.63 203.95h4.59v26.4h-4.59zM434.5 184.31h4.59v46.04h-4.59zM443.37 192.61h4.59v37.74h-4.59zM452.24 185.98h4.59v44.37h-4.59zM461.11 200.12h4.59v30.23h-4.59zM469.98 194.37h4.59v35.98h-4.59z" style="fill:#ff725e"/><path d="M476.45 233.93c0 .1-21.79.19-48.67.19s-48.67-.09-48.67-.19 21.79-.19 48.67-.19 48.67.08 48.67.19M387.84 238a32.4 32.4 0 0 1-6.82 0 30.7 30.7 0 0 1 6.82 0M399.15 238.17a44 44 0 0 1-8.15 0 44 44 0 0 1 8.15 0M408.8 238.17a44 44 0 0 1-8.15 0 44 44 0 0 1 8.15 0M418.44 238.17a44 44 0 0 1-8.15 0 44 44 0 0 1 8.15 0M428.09 238.17a44 44 0 0 1-8.15 0 44 44 0 0 1 8.15 0M437.73 238.17a44 44 0 0 1-8.15 0 44 44 0 0 1 8.15 0M447.38 238.17a44 44 0 0 1-8.15 0 44 44 0 0 1 8.15 0M457 238.17a44 44 0 0 1-8.15 0 44 44 0 0 1 8.15 0M466.67 238.17a44 44 0 0 1-8.15 0 44 44 0 0 1 8.15 0M476.32 238.17a44 44 0 0 1-8.15 0 44 44 0 0 1 8.15 0" style="fill:#263238"/><g style="opacity:.30000000000000004"><path d="M390.16 196.47h4.59v33.88h-4.59z" style="fill:#fff"/></g><g style="opacity:.30000000000000004"><path d="M407.9 181.03h4.59v49.33h-4.59z" style="fill:#fff"/></g><g style="opacity:.30000000000000004"><path d="M425.63 203.95h4.59v26.4h-4.59z" style="fill:#fff"/></g><g style="opacity:.30000000000000004"><path d="M443.37 192.61h4.59v37.74h-4.59z" style="fill:#fff"/></g><g style="opacity:.30000000000000004"><path d="M461.11 200.12h4.59v30.23h-4.59z" style="fill:#fff"/></g><path d="M259.4 120.31a4.43 4.43 0 1 1-4.42-4.42 4.42 4.42 0 0 1 4.42 4.42M335.43 116.82c0 .15-14.91.26-33.3.26s-33.3-.11-33.3-.26 14.9-.26 33.3-.26 33.3.12 33.3.26M295.56 122.17a3.7 3.7 0 0 1-1 .1l-2.81.09c-2.38 0-5.66.07-9.28.07s-6.91 0-9.28-.07l-2.82-.09a3.8 3.8 0 0 1-1-.1 4.4 4.4 0 0 1 1-.1c.67 0 1.63-.06 2.82-.08 2.37 0 5.65-.08 9.28-.08s6.9 0 9.28.08c1.19 0 2.15.05 2.81.08a4.3 4.3 0 0 1 1 .1" style="fill:#ff725e"/><path d="M81.56 103.23h139.91v159.68H81.56z" style="fill:#fafafa"/><path d="M221.48 262.9v-11.59c0-7.54 0-18.57-.06-32.58 0-28-.07-67.89-.11-115.5l.23.23H81.64l.26-.26v159.67l-.22-.22 101.32.15 28.38.06h10.06-9.97l-28.33.06-101.62.11h-.22V103h140.41v.23l-.12 115.65c0 14-.05 25-.06 32.52v10.77c0 .5-.05.73-.05.73" style="fill:#263238"/><path d="M209.45 184.76c0 .1-1.55-.78-4.5-1.71a29 29 0 0 0-12.9-1 28.4 28.4 0 0 0-8.51 2.74 39.6 39.6 0 0 0-8.37 6c-2.74 2.42-5.47 5.17-8.61 7.71a29.7 29.7 0 0 1-11 5.94 16.4 16.4 0 0 1-6.41.39 21.1 21.1 0 0 1-5.95-1.83 105 105 0 0 1-10-5.93 30.7 30.7 0 0 0-9.36-4.19 27.7 27.7 0 0 0-8.91-.69 28.6 28.6 0 0 0-12.3 4c-2.64 1.61-3.88 2.82-4 2.74a5 5 0 0 1 .89-.88 22 22 0 0 1 2.86-2.18 28.12 28.12 0 0 1 21.59-3.78 31.8 31.8 0 0 1 9.64 4.22 104 104 0 0 0 9.9 5.82 16.9 16.9 0 0 0 11.73 1.38 29.2 29.2 0 0 0 10.76-5.68c3.1-2.49 5.83-5.22 8.62-7.65a40.2 40.2 0 0 1 8.59-6.06 28.44 28.44 0 0 1 21.89-1.42 22 22 0 0 1 3.3 1.42 6.5 6.5 0 0 1 1.05.64M120.07 206.21h11.89v32.17h-11.89zM170.55 206.21h11.89v32.17h-11.89z" style="fill:#ff725e"/><path d="M187.37 187.31h11.89v51.06h-11.89zM104.68 228.25h11.89v10.83h-11.89zM136.9 220.73h11.9v17.64h-11.9zM153.72 216.68h11.89v21.69h-11.89z" style="fill:#ff725e"/><path d="M132.45 242.17c0 .26-2.88.48-6.43.48s-6.43-.22-6.43-.48 2.88-.48 6.43-.48 6.43.21 6.43.48M117.65 242.17c0 .26-2.88.48-6.43.48s-6.43-.22-6.43-.48 2.88-.48 6.43-.48 6.43.21 6.43.48M201.61 242.17c0 .26-3.25.48-7.26.48s-7.27-.22-7.27-.48 3.25-.48 7.27-.48 7.26.21 7.26.48" style="fill:#263238"/><ellipse cx="176.68" cy="242.17" rx="7.26" ry=".48" style="fill:#263238"/><path d="M165.62 242.17c0 .26-2.88.48-6.43.48s-6.43-.22-6.43-.48 2.88-.48 6.43-.48 6.43.21 6.43.48M148.23 242.17c0 .26-2.87.48-6.42.48s-6.43-.22-6.43-.48 2.88-.48 6.43-.48 6.42.21 6.42.48" style="fill:#263238"/><path d="M104.4 126.51h97.21v40.37H104.4z" style="fill:#e0e0e0"/><path d="M124.6 139.26a4.54 4.54 0 1 1-4.54-4.53 4.54 4.54 0 0 1 4.54 4.53M129.13 136.13h31.58v1.75h-31.58z" style="fill:#263238"/><path d="M129.13 140.12h61.43v1.75h-61.43z" style="fill:#fff"/><path d="M124.6 153.2a4.54 4.54 0 1 1-4.54-4.53 4.53 4.53 0 0 1 4.54 4.53M129.13 150.07h16.12v1.75h-16.12z" style="fill:#ff725e"/><path d="M129.13 154.05h61.43v1.75h-61.43z" style="fill:#fff"/><path d="M507.36 74.56H661v175.35H507.36z" style="fill:#fafafa"/><path d="M661 249.91v-12.73c0-8.28 0-20.39-.06-35.77 0-30.75-.07-74.56-.11-126.85l.23.23H507.43l.27-.26c0 64.65 0 124.94-.05 175.35l-.22-.22 111.45.11 31.15.06h11.05-10.96L619 250l-111.59.11h-.22V74.3h154.14v.23c0 52.35-.09 96.21-.12 127 0 15.37 0 27.46-.06 35.73v11.82c-.15.56-.15.83-.15.83" style="fill:#263238"/><path d="M519.66 88.58h124.46v99.85H519.66z" style="fill:#e0e0e0"/><path d="M528.35 170.68h4.08v1.18h-4.08zM537.6 176.97h5.22v1.18h-5.22zM555.78 176.97H561v1.18h-5.22zM573.97 176.97h5.22v1.18h-5.22zM592.15 176.97h5.22v1.18h-5.22zM610.34 176.97h5.22v1.18h-5.22zM628.52 176.97h5.22v1.18h-5.22zM528.35 154.95h4.08v1.18h-4.08zM528.35 125.37h4.08v1.18h-4.08zM528.35 110.5h4.08v1.18h-4.08zM528.56 140.16h4.08v1.18h-4.08zM633.6 171.85a2.5 2.5 0 0 1-.44 0h-6.28l-18.17.09-60 .07h-14.4v-.26c0-20 .07-37.69.09-50.35 0-6.3.06-11.36.08-14.87v-5a1.4 1.4 0 0 1 0-.35 1.4 1.4 0 0 1 0 .35v5c0 3.51.05 8.57.08 14.87 0 12.66 0 30.31.09 50.35l-.26-.25h14.21l60 .08 18.17.08 5 .05h1.28Z" style="fill:#263238"/><path d="M634.75 140.75c0 .14-21.54.26-48.11.26s-48.12-.12-48.12-.26 21.54-.26 48.12-.26 48.11.12 48.11.26M634.75 126c0 .15-21.54.26-48.11.26s-48.12-.11-48.12-.26 21.54-.26 48.12-.26 48.11.07 48.11.26M634.75 111.08c0 .15-21.54.26-48.11.26s-48.12-.11-48.12-.26 21.54-.26 48.12-.26 48.11.12 48.11.26M634.75 155.54c0 .15-21.54.26-48.11.26s-48.12-.11-48.12-.26 21.54-.26 48.12-.26 48.11.12 48.11.26" style="fill:#263238"/><path d="M539.51 168.67v-13.13l8.18-12.7 5.56 4.26 11.39-17.7 6.72 4.73 9.35-16.33 7.6 6.19 11.39-21.66 12.3 24.21 9.93-12.11 11.69-3.35v57.59Z" style="fill:#455a64"/><path d="M634.75 106.42h-3.19l-9 .07.12-.06-9.6 12.57-.06.08h-24.08l.21-.12c-3.17 5.27-6.58 11-10.11 16.84l-9.94 16.51-.19.32-.23-.3c-4.74-6.54-9.14-12.59-13-17.93h.32L544.05 153l-3.33 5.11-.89 1.33c-.2.3-.32.45-.32.45s.08-.17.27-.48l.83-1.37 3.24-5.17 11.75-18.61.17-.27.18.26L569 152.16h-.42l9.92-16.52 10.13-16.83.07-.12h24.21l-.16.08 9.69-12.49v-.06h.07l9 .07h2.98Z" style="fill:#ff725e"/><path d="M559.73 138.61a.93.93 0 1 1-.93-.89.91.91 0 0 1 .93.89M587.48 122.83a.93.93 0 1 1-.92-.88.91.91 0 0 1 .92.88M609.06 119a.93.93 0 1 1-.93-.89.91.91 0 0 1 .93.89" style="fill:#ff725e"/><path d="M638.51 203.27c0 .15-26.26.26-58.65.26s-58.66-.11-58.66-.26 26.26-.26 58.66-.26 58.65.12 58.65.26M638.51 209.61c0 .15-26.26.26-58.65.26s-58.66-.11-58.66-.26 26.26-.26 58.66-.26 58.65.12 58.65.26M638.51 216c0 .14-26.26.26-58.65.26s-58.66-.12-58.66-.26 26.26-.26 58.66-.26 58.65.07 58.65.26M638.51 222.3c0 .14-26.26.26-58.65.26s-58.66-.12-58.66-.26 26.26-.26 58.66-.26 58.65.11 58.65.26" style="fill:#263238"/><path d="M592.18 219.81c3.21-5.39 4.15-12.57 5-18.79.38-2.93 1.06-7.09-1-8.93s-2.4-5-4.93-6.51a7.78 7.78 0 0 0-8.36.07" style="fill:#263238"/><path d="M583.28 238.9a8.66 8.66 0 0 1-9.32-8.3c-.18-4.72-.34-9.48-.34-9.48s-7.14-.67-7.66-7.74-.28-23.39-.28-23.39a24.63 24.63 0 0 1 24.9 1.6l-.44 24.88v13.39c-.05 4.49-2.38 8.7-6.86 9.04" style="fill:#ffbe9d"/><path d="M573 204.75a3.62 3.62 0 0 1 4.83-1.06 4.12 4.12 0 0 1 1.37 5.14 5.43 5.43 0 0 1-3.47 2.62 2.73 2.73 0 0 0-2.13 2.93c.21 1.77 3.16 2.44 4.49 3.91 2.07 2.28 6.62 3.25 9.69 3.61s2.64.38 4.39-2.09a9.4 9.4 0 0 0 1.72-5.74l.33-15.64a22.4 22.4 0 0 0-.36-5.61 7.52 7.52 0 0 0-3-4.64c-1.72-1.13-3.9-1.23-5.85-1.86-2.45-.79-4.53-2.42-6.82-3.59s-5.1-1.87-7.4-.72c-1.65.83-2.76 2.48-4.37 3.39-2.28 1.3-5.39 1-6.5 4.37a5.6 5.6 0 0 0 0 3.59c1.55 4.58 7.21 6.42 11.29 4.44.08.78-.68 2.5.13 4.95.26.78.36 2 1.58 2" style="fill:#263238"/><path d="M574.27 209.16c.06 0 .3.37.89.34a1.66 1.66 0 0 0 1.32-1.62 1.77 1.77 0 0 0-1.21-1.76c-.59-.21-1-.1-1-.18s.39-.32 1.12-.17a2.17 2.17 0 0 1 1.11.64 2.08 2.08 0 0 1 .52 1.5 1.94 1.94 0 0 1-1.84 2 1.06 1.06 0 0 1-.79-.39c-.15-.23-.15-.35-.12-.36" style="fill:#eb996e"/><path d="M581.63 187.84s.15-.27.59-.6a4.86 4.86 0 0 1 2.15-.83 6.2 6.2 0 0 1 3.38.51 7.74 7.74 0 0 1 3.12 2.79 15.86 15.86 0 0 1 2.2 7.16 19 19 0 0 1 .19 3.09 17.3 17.3 0 0 1-.56-3 17 17 0 0 0-2.26-6.92 7.53 7.53 0 0 0-2.89-2.64 5.71 5.71 0 0 0-5.92.48ZM561.72 195.08a.7.7 0 0 1-.27 0 2.1 2.1 0 0 1-.7-.32 2.6 2.6 0 0 1-.82-.92 2.34 2.34 0 0 1-.22-1.64 2.7 2.7 0 0 1 1.14-1.65 3.86 3.86 0 0 1 2.24-.44 3.06 3.06 0 0 0 2.13-.54 15 15 0 0 0 1.73-1.86 8.76 8.76 0 0 1 4.41-2.54 9.4 9.4 0 0 1 4.14-.1 8 8 0 0 1 2.61 1 3.2 3.2 0 0 1 .81.62 12.5 12.5 0 0 0-3.48-1.26 9.4 9.4 0 0 0-4 .19 8.5 8.5 0 0 0-4.13 2.43 15 15 0 0 1-1.81 1.92 2.94 2.94 0 0 1-1.22.55 5.8 5.8 0 0 1-1.23.06 3.47 3.47 0 0 0-2 .32 2.32 2.32 0 0 0-1 1.38 2.27 2.27 0 0 0 .8 2.31 6 6 0 0 0 .87.49M580.64 214.75c0-.05.35-.18.93-.57a5.85 5.85 0 0 0 1.93-2.18 5.35 5.35 0 0 0 .32-4.14 5.3 5.3 0 0 0-1.28-2.13 10.3 10.3 0 0 0-2.21-1.61c-.83-.48-1.67-.93-2.43-1.45a8.1 8.1 0 0 1-2-1.85 8.54 8.54 0 0 1-1.66-4.18 7.8 7.8 0 0 1 .24-3 3.4 3.4 0 0 1 .28-.77c.08-.18.13-.26.14-.25a10.7 10.7 0 0 0-.29 4 8.45 8.45 0 0 0 1.67 3.94 8.1 8.1 0 0 0 1.86 1.72c.74.49 1.57.93 2.41 1.42a10.4 10.4 0 0 1 2.32 1.71 5.75 5.75 0 0 1 1.37 2.33 5.67 5.67 0 0 1-.46 4.47 5.6 5.6 0 0 1-2.14 2.14 2.8 2.8 0 0 1-1 .4" style="fill:#455a64"/><path d="M592.9 204.37a3 3 0 0 1-.91.21 14 14 0 0 1-2.55.07 15.67 15.67 0 0 1-7.88-2.71 12.5 12.5 0 0 1-5.18-6.51 5.4 5.4 0 0 1-.1-2.56 2 2 0 0 1 .35-.87 6.3 6.3 0 0 0 .11 3.33 12.78 12.78 0 0 0 5.11 6.18 16.6 16.6 0 0 0 7.62 2.77c2.1.23 3.42-.01 3.43.09" style="fill:#455a64"/><path d="M594 199.53a12.51 12.51 0 0 1 9.75-4.42c3.68.21 7.27 2.76 8.17 6.33.68 2.7-.15 5.51-.49 8.26s0 6 2.23 7.61c1.36 1 3.11 1.16 4.74 1.56s3.36 1.21 3.92 2.79c.64 1.81-.67 3.86-2.43 4.63a9 9 0 0 1-5.66.08 4.73 4.73 0 0 1-2.1 5.66 6.25 6.25 0 0 1-6.28-.26 9.38 9.38 0 0 1-3.83-5.2c-1.21 2.13-4.39 2.58-6.43 1.22a6.72 6.72 0 0 1-2.6-6.46 12.5 12.5 0 0 1 3.26-6.46 16.2 16.2 0 0 0 2.27-2.9 3.67 3.67 0 0 0 .14-3.53 2.12 2.12 0 0 0-3.14-.63" style="fill:#263238"/><path d="M598.27 207a2.44 2.44 0 0 1-2.12 0 5.09 5.09 0 0 1-3.08-4 5.24 5.24 0 0 1 .33-2.87 5.4 5.4 0 0 1 1.36-1.92 3.43 3.43 0 0 1 1.86-1 16 16 0 0 0-1.6 1.3 5.24 5.24 0 0 0-1.44 4.45 5 5 0 0 0 2.71 3.76 5.2 5.2 0 0 0 1.98.28" style="fill:#ff725e"/><path d="M573.39 221a3.3 3.3 0 0 1-1.62-.16 8.74 8.74 0 0 1-5.72-5.06 3.3 3.3 0 0 1-.36-1.58 11.6 11.6 0 0 1 .69 1.43 10 10 0 0 0 2.29 3 10.3 10.3 0 0 0 3.21 1.91 10 10 0 0 1 1.51.46" style="fill:#eb996e"/><path d="M600.61 226.79h-.35a3.3 3.3 0 0 1-.92-.41 5 5 0 0 1-2-3.05 6.4 6.4 0 0 1-.09-2.57 10.2 10.2 0 0 1 .94-2.78c.89-1.87 2.29-3.64 3.33-5.69a10 10 0 0 0 1-3.15 6.09 6.09 0 0 0-3.93-6.56 6.5 6.5 0 0 0-3.5-.21c-.83.17-1.25.4-1.27.36s.09-.08.29-.2a5.3 5.3 0 0 1 .93-.36 6.29 6.29 0 0 1 7.59 3.79 6.6 6.6 0 0 1 .4 3.24 10.6 10.6 0 0 1-1.09 3.32c-1.08 2.12-2.49 3.87-3.37 5.67a7.56 7.56 0 0 0-.92 5.06 5 5 0 0 0 1.76 3 8 8 0 0 0 1.2.54" style="fill:#455a64"/><path d="M611.27 232a2 2 0 0 1-.44 0 5 5 0 0 1-1.26-.22 7.13 7.13 0 0 1-3.69-2.87 10.92 10.92 0 0 1-1.58-6.74 67 67 0 0 1 1.36-8.37 20 20 0 0 0 .3-4.31 11.2 11.2 0 0 0-.91-3.86 7 7 0 0 0-5-4.14 10.2 10.2 0 0 0-4.55 0c-1.07.24-1.63.48-1.65.43s.13-.09.39-.21a11 11 0 0 1 1.21-.42 9.9 9.9 0 0 1 4.68-.17 7.4 7.4 0 0 1 3 1.34 7.7 7.7 0 0 1 2.33 3 11.3 11.3 0 0 1 1 4 19 19 0 0 1-.29 4.42 77 77 0 0 0-1.4 8.31 10.73 10.73 0 0 0 1.42 6.51 7.06 7.06 0 0 0 3.44 2.88 11 11 0 0 0 1.64.42" style="fill:#455a64"/><path d="m613.4 264.17-15.05 11.74 6.31 10.38 18.14-13.36zM573.12 224.7s.08-1.26-3.21-1.44a34 34 0 0 0-3.65-.12 8.3 8.3 0 0 1-1.57-3 9.2 9.2 0 0 1 .7-3.1l3.33-.3-.9-2.26-2.35.16-6.61.8-2.63 11.56-18.06 33.7a8.71 8.71 0 0 0 3.45 12.67c4.67 2.26 10.92-2.53 12.65-7.42l10-37.49 3.52-2.74 5-.92M532 449l24.55-141.4c.06-.21.11-.41.16-.61 4.19-16.59 10.64-21.9 10.64-21.9l37.61 2.36c3.2 5.75 3.61 19.54 3.61 19.54.44 1.69-7.95 138.72-7.95 138.72l-12.62-.39-6.82-129.64-36.61 133.87Z" style="fill:#ffbe9d"/><path d="m531.67 450.28.05-1.27 12.94.37-.11 4.21h-.8c-3.56.09-18.11.21-20.47-.52-2.62-.79 8.39-2.79 8.39-2.79" style="fill:#ff725e"/><g style="opacity:.6000000000000001"><path d="M539.88 453.37a4.18 4.18 0 0 1 1.72-2.51 4.6 4.6 0 0 1 3-.79l-.1 3.35Z" style="fill:#fff"/></g><g style="opacity:.6000000000000001"><path d="M526.28 451.44s-3.86.92-3.4 1.52 15.17 1 21.67.63v-.27l-17.17-.32s-.38-1.51-1.1-1.56" style="fill:#fff"/></g><path d="M544.74 453.32h-3.2c-2 0-4.72 0-7.74-.08s-5.75-.2-7.73-.32l-2.34-.15h-.85.86l2.34.1c2 .09 4.71.2 7.73.28s5.75.1 7.73.12h3.2Z" style="fill:#263238"/><path d="M527.37 453.19a3 3 0 0 0-1.18-1.9 1.62 1.62 0 0 1 .91.78 1.5 1.5 0 0 1 .27 1.12M531.23 451.5s-.21-.19-.39-.47-.3-.52-.26-.54.21.19.39.47.3.52.26.54M532.29 451s-.23-.11-.45-.3-.37-.37-.34-.4a1.2 1.2 0 0 1 .45.3c.22.21.37.4.34.4M533 449.9a1.6 1.6 0 0 1-.67.07 1.6 1.6 0 0 1-.67-.09 1.54 1.54 0 0 1 .67-.06 1.7 1.7 0 0 1 .67.08M533.23 449.11a1.3 1.3 0 0 1-.75.19 1.4 1.4 0 0 1-.78-.12 4.6 4.6 0 0 1 .77 0 4 4 0 0 1 .76-.07" style="fill:#263238"/><path d="M530.82 450.45a2.9 2.9 0 0 1-.82 0 6 6 0 0 1-.88-.2 3 3 0 0 1-.5-.21.43.43 0 0 1-.2-.25.29.29 0 0 1 .14-.3 1.58 1.58 0 0 1 1.86.46 1.3 1.3 0 0 1 .26.52v.21a2.1 2.1 0 0 0-.35-.67 1.56 1.56 0 0 0-.7-.44 1.36 1.36 0 0 0-1 0c-.13.08-.08.23.06.31a2.4 2.4 0 0 0 .46.2 6 6 0 0 0 .85.23c.51.1.82.11.82.14" style="fill:#263238"/><path d="M530.61 450.48a.72.72 0 0 1-.08-.54 1.2 1.2 0 0 1 .24-.56.87.87 0 0 1 .7-.37.31.31 0 0 1 .25.36.8.8 0 0 1-.15.34 2.7 2.7 0 0 1-.41.46 1.3 1.3 0 0 1-.48.3s.17-.14.4-.37a2.2 2.2 0 0 0 .36-.46c.12-.16.21-.45 0-.49a.77.77 0 0 0-.55.32 1.1 1.1 0 0 0-.25.49 2.3 2.3 0 0 0-.03.52M544.58 450h-1a4.55 4.55 0 0 0-2.1.74 3.94 3.94 0 0 0-1.35 1.68c-.21.5-.24.85-.27.84a.6.6 0 0 1 0-.24 3 3 0 0 1 .16-.64 3.7 3.7 0 0 1 1.36-1.75 4.2 4.2 0 0 1 2.19-.73 3.4 3.4 0 0 1 .7 0 .66.66 0 0 1 .31.1M538.3 452.16a7.6 7.6 0 0 1-1.89.13 8.5 8.5 0 0 1-1.88-.19c0-.05.85 0 1.88 0s1.88.02 1.89.06" style="fill:#263238"/><path d="M540.82 452.23s-.07.16-.16.34-.15.33-.19.33-.06-.19 0-.4.32-.3.35-.27M541.81 451.15s-.06.15-.2.27-.27.2-.3.17.06-.15.19-.27.28-.2.31-.17M543.18 450.68s-.18 0-.37.09-.33.15-.36.12.08-.19.31-.26.44.02.42.05M544.16 450.47s-.06.1-.17.13-.21 0-.22 0 .06-.1.17-.13.2-.04.22 0M594.87 228.68a24.8 24.8 0 0 1 10 3.92c11.89 7.71 31.78 24 30.13 31.57-1.44 6.42-17 14.23-17 14.23l-10-12.12 6.17-3.53-15.17-10.1Z" style="fill:#263238"/><path d="m601.65 253.23-.49 1.8-1.75 8.36-.41 12.25c9 11.62 9.16 21.4 9.16 21.4l-45.57 5.32c0-9 3.29-20.34 3.29-20.34 2.63-4.47 2.51-17.85 2-18.34-2.84-2.82-3.53-4.89-1.26-8.5 0 0-14.13 14.84-15.58 16.17-5 4.58-9.8 3.3-12 1.31-6.24-5.57.16-12.75.16-12.75l23.8-27.27a11.87 11.87 0 0 1 6.18-3.77 51 51 0 0 1 5.1-.9l15.89.13a27 27 0 0 1 4.73.58 11.35 11.35 0 0 1 6.94 8.6c1.39 6.83-.19 15.95-.19 15.95" style="fill:#263238"/><path d="M602.15 242.3a6 6 0 0 1 .1 1.32c0 .85 0 2.09-.09 3.61a95 95 0 0 1-1.57 11.77c-.29 1.55-.61 3.05-.94 4.44v-.05c-.14 3.54-.28 6.6-.4 8.78-.07 1-.12 1.86-.16 2.54a3.8 3.8 0 0 1-.12.92 3.5 3.5 0 0 1-.05-.92v-2.55c0-2.18.11-5.25.22-8.79v-.05c.31-1.37.62-2.87.91-4.42.87-4.54 1.45-8.69 1.72-11.71.13-1.51.2-2.73.25-3.58a7 7 0 0 1 .13-1.31M602.3 254.55a191 191 0 0 1 16.35 11.31 92 92 0 0 1-8.32-5.44 95 95 0 0 1-8.03-5.87M572.84 236.69s.1.05.24.18a5 5 0 0 1 .56.62 6.9 6.9 0 0 1 1.24 2.82 9.3 9.3 0 0 1-.26 4.57 18.7 18.7 0 0 1-2.56 5 17.7 17.7 0 0 1-1.88 2.21c-.66.67-1.37 1.22-2 1.79-1.26 1.13-2.34 2.2-3.24 3.12s-1.61 1.67-2.1 2.19-.77.82-.8.79a5 5 0 0 1 .65-.92c.44-.56 1.11-1.36 2-2.32s1.93-2 3.19-3.21c.63-.59 1.32-1.15 2-1.8a17.6 17.6 0 0 0 1.82-2.16 19.2 19.2 0 0 0 2.52-4.8 9.34 9.34 0 0 0 .36-4.36 8.2 8.2 0 0 0-1.74-3.72" style="fill:#455a64"/><path d="m567.54 276.98.53-6.12h31.08l-.17 4.78zM541 258.71a20 20 0 0 0-1.73 1.8 8.27 8.27 0 0 0 .44 10.85 24 24 0 0 0 1.87 1.66s-.25 0-.64-.27a7 7 0 0 1-1.49-1.13 8.21 8.21 0 0 1-.46-11.35 6.9 6.9 0 0 1 1.39-1.25c.4-.24.62-.34.62-.31" style="fill:#455a64"/><path d="m600.58 445.67 3.53 8.2-15.78-.19-.33-8.36z" style="fill:#ff725e"/><path d="M588.22 452.26a14.4 14.4 0 0 0 2.2.11h5.34l5.32-.11a15.4 15.4 0 0 0 2.21-.12 16 16 0 0 0-2.21-.1h-5.33l-5.33.1a19 19 0 0 0-2.2.12" style="fill:#263238"/><path d="M594.79 445.49a10.9 10.9 0 0 0-.06 3.32 11.1 11.1 0 0 0 .43 3.3 10.9 10.9 0 0 0 .06-3.32 11.1 11.1 0 0 0-.43-3.3" style="fill:#263238"/><path d="m604.08 454.04-15.76-.53-.1-1.5 15.07.13.8 1.72" style="fill:#fff;opacity:.6000000000000001"/><path d="M607.13 289.14c11.87 37.45-3.43 82.91.24 126.55.36 4.29 2.1 9.41-1.91 11.85a6.54 6.54 0 0 1-3.62.89c-3.2-.11-5.88-1.77-8.74-2.91a26 26 0 0 0-17.2-.67c-3.78 1.18-7.54 3.27-11.46 2.68-5.21-.79-8.58-5.94-13.37-8.12-4.49-2-9.67-1.28-14.6-1.4h-.15a11.06 11.06 0 0 1-10.22-14c7.17-26.24 30.92-111.46 41.44-127l31.46-1.37c2.88 3.5 6.6 8.73 8.13 13.5" style="fill:#ff725e"/><path d="M596.12 306.77a14 14 0 0 1-1.71 2.15 51 51 0 0 1-4.64 4.75 31 31 0 0 1-5.48 3.76 12.4 12.4 0 0 1-2.5 1.16c-.11-.18 3.74-2 7.63-5.32 1.94-1.68 3.53-3.39 4.72-4.6a14 14 0 0 1 1.98-1.9" style="fill:#263238"/><path d="M582.24 320.9a133.9 133.9 0 0 0-5.24 80.16c.56 2.29 1.14 4.89-.17 6.86-1.68 2.54-5.77 2.37-8.08.37s-3.23-5.13-3.81-8.13c-4.32-22.34 3.5-44.8 11.94-65.93" style="opacity:.1"/><path d="M344.33 333.52h59.59v2.9h-59.59z" style="fill:#263238"/><path d="m335.09 336.42-11.17-41.88h46.52l10.12 41.88z" style="fill:#263238"/><path d="M377.77 333.25h-41.56l-9.67-36.78h41.77z" style="fill:#f5f5f5"/><path d="M327.23 299.12H369l-.71-2.65h-41.75Z" style="fill:#ebebeb"/><path d="M331.74 297.8a.46.46 0 1 0 .46-.46.46.46 0 0 0-.46.46M330.17 297.8a.46.46 0 1 0 .46-.46.46.46 0 0 0-.46.46M328.6 297.8a.46.46 0 0 0 .46.45.46.46 0 0 0 0-.91.46.46 0 0 0-.46.46" style="fill:#fafafa"/><path d="m358.63 315.23 4.58 5.24a6.47 6.47 0 0 0 2.79-5.27c0-3.66-3.36-6.66-7.41-6.64s-7.38 3-7.36 6.7Z" style="fill:#ff725e"/><path d="M358.05 316.07a10.2 10.2 0 0 1 1.31 1.31c.82.88 2 2.16 3.38 3.72l.16.18-.2.14a7.87 7.87 0 0 1-7.71.76 7.6 7.6 0 0 1-3.18-2.55 6.5 6.5 0 0 1-1.17-3.44V316h5.49a12 12 0 0 1 1.93.09 14 14 0 0 1-2 .16c-1.26.06-3 .12-5.18.18l.22-.24a6.3 6.3 0 0 0 1.14 3.17 7.1 7.1 0 0 0 3 2.36 7.58 7.58 0 0 0 7.25-.63v.32c-1.33-1.55-2.42-2.86-3.18-3.79a13 13 0 0 1-1.26-1.55M355.06 311.28a.43.43 0 0 0 .42.42.42.42 0 0 0 .41-.42.41.41 0 0 0-.41-.41.41.41 0 0 0-.42.41" style="fill:#263238"/><path d="M346.83 308.29a23.2 23.2 0 0 1 4.95-.28h.76l.08.07a19.8 19.8 0 0 1 2.86 3.2 20 20 0 0 1-3.23-2.83l.19.07h-.66a24.2 24.2 0 0 1-4.95-.23" style="fill:#263238"/><path d="M337.48 313.52a13 13 0 0 1-.48-1.93c-.28-1.27-.67-3.12-1.13-5.39l-.05-.25h.26l10.34-.09c-.06 0 .49.41.26.22v.48l.09.49c.06.33.13.65.19 1 .12.64.23 1.27.35 1.89.23 1.23.44 2.41.65 3.53l.05.28h-.28c-3.11 0-5.72-.05-7.54-.08l-2.09-.06a3 3 0 0 1-.71-.06 4.5 4.5 0 0 1 .8-.06l2.14-.07c1.83-.05 4.38-.11 7.4-.14l-.23.28-.6-3.56c-.12-.61-.24-1.24-.36-1.88-.06-.32-.13-.65-.19-1l-.09-.49-.05-.25v-.22c-.23-.19.31.26.25.22h-10.38l.21-.25c.39 2.19.69 4 .9 5.32s.31 2.04.29 2.07M354.45 319.61a.42.42 0 0 0 .83 0 .42.42 0 0 0-.42-.42.41.41 0 0 0-.41.42" style="fill:#263238"/><path d="M347.35 319.64a13.5 13.5 0 0 1 3.76-.28 13.3 13.3 0 0 1 3.75.25 13.7 13.7 0 0 1-3.75.27 14 14 0 0 1-3.76-.24" style="fill:#263238"/><path d="M337.51 322.9a9 9 0 0 1-.45-1.38c-.27-.92-.66-2.28-1.13-4l-.06-.24h.25c2.82-.05 6.57-.09 10.67-.1l.25.19v.35l.09.36.18.7c.12.47.24.93.35 1.38.23.9.45 1.78.66 2.62l.08.3h-.31c-3.16 0-5.86 0-7.74-.08l-2.18-.06a3.5 3.5 0 0 1-.75-.06 6 6 0 0 1 .84-.07l2.23-.07c1.89-.06 4.52-.11 7.6-.14l-.24.3c-.22-.84-.45-1.71-.68-2.61l-.36-1.38-.18-.71-.09-.35-.05-.18v-.16c-.06 0 .48.37.25.2h-10.66l.18-.25c.4 1.64.7 3 .91 3.93a10 10 0 0 1 .34 1.51M338.3 308.41a12.6 12.6 0 0 1 3.53-.27 11.8 11.8 0 0 1 3.54.25 12.6 12.6 0 0 1-3.54.27 11.8 11.8 0 0 1-3.53-.25M338.38 309.57a12.8 12.8 0 0 1 3.56-.27 12.6 12.6 0 0 1 3.56.24 24 24 0 0 1-7.12 0ZM338.59 310.69a11.3 11.3 0 0 1 3.44-.28 12 12 0 0 1 3.43.25 11.2 11.2 0 0 1-3.43.28 12 12 0 0 1-3.44-.25" style="fill:#263238"/><path d="M338.51 319.54a11.4 11.4 0 0 1 3.37-.27 10.7 10.7 0 0 1 3.37.25 11.5 11.5 0 0 1-3.37.27 10.7 10.7 0 0 1-3.37-.25M338.92 320.82a16.1 16.1 0 0 1 5.76 0 16.1 16.1 0 0 1-5.76 0M273.76 336.29v5.49h3.6v111.21h7.38V341.78h39.17v111.21h7.38V341.78h169.93v111.18h7.39V341.78h3.19v-5.49z" style="fill:#263238"/><path d="M433.8 377.72a55 55 0 0 0 9.6 0 57.7 57.7 0 0 0-9.6 0" style="fill:#263238"/><ellipse cx="363.89" cy="378.73" rx=".26" ry=".13" style="fill:#455a64"/><path d="m410.92 279.87-27.56-28-.6-3c-.11-.55-.23-1.17-.34-1.88a7.5 7.5 0 0 1 .05-2.46 11 11 0 0 1 .85-2.94c.46-.81-.28-1.79-1.05-1.45s-2.1 2.53-2.39 5.56-2.87-1-3.83-2.44-4.16-5.77-4.83-5.82c-1-.08-1.22 1-.23 2.4s3.7 5.9 2.94 6.37a3.6 3.6 0 0 0-3.81 1.89c-.7 1.33-1.47 3.23-.84 4.1a50 50 0 0 0 4.4 4.66l.92.79s23.85 34.56 29.05 35.69c3.23.69 53.21 4.84 53.21 4.84l3.77-13.77Z" style="fill:#b78876"/><path d="m369 251.58 2.55 2.45a3.2 3.2 0 0 0 1 .71 1.06 1.06 0 0 0 1.12-.18 1.08 1.08 0 0 0 .15-1 3 3 0 0 0-.59-.9l-2.48-3" style="fill:#b78876"/><path d="M370.75 249.65c.06-.05.53.42 1.26 1.23.41.46.83.93 1.26 1.43a4.6 4.6 0 0 1 .71.95 1.36 1.36 0 0 1-.07 1.41 1.25 1.25 0 0 1-1.4.32 2.8 2.8 0 0 1-1-.7l-1.33-1.36c-.75-.78-1.19-1.29-1.14-1.35a6 6 0 0 1 1.39 1.09l1.41 1.27a2.4 2.4 0 0 0 .84.57.77.77 0 0 0 .82-.16.87.87 0 0 0 0-.87 5 5 0 0 0-.61-.87c-.41-.51-.8-1-1.18-1.5a5.8 5.8 0 0 1-.96-1.46" style="fill:#aa6550"/><path d="m370.85 249.8 2.55 2.45a3 3 0 0 0 1 .7 1 1 0 0 0 1.12-.18 1.06 1.06 0 0 0 .15-1 3.2 3.2 0 0 0-.59-.91l-2.48-3" style="fill:#b78876"/><path d="M372.56 247.86c.06 0 .53.43 1.26 1.24l1.26 1.42a4.6 4.6 0 0 1 .71.95 1.38 1.38 0 0 1-.07 1.42 1.25 1.25 0 0 1-1.4.32 2.8 2.8 0 0 1-1-.7l-1.32-1.36a6.2 6.2 0 0 1-1.14-1.35 6.2 6.2 0 0 1 1.39 1.08l1.41 1.28a2.4 2.4 0 0 0 .84.57.77.77 0 0 0 .82-.16.89.89 0 0 0 0-.88 4.4 4.4 0 0 0-.62-.86l-1.17-1.5a5.6 5.6 0 0 1-.97-1.47" style="fill:#aa6550"/><path d="m372.84 248.34 2.55 2.45a2.8 2.8 0 0 0 1 .7.91.91 0 0 0 1.26-1.2 3 3 0 0 0-.59-.91c-.82-1-1.65-2-2.47-3" style="fill:#b78876"/><path d="M374.55 246.4a6.5 6.5 0 0 1 1.26 1.23l1.26 1.43a4.6 4.6 0 0 1 .7.95 1.33 1.33 0 0 1-.07 1.42 1.23 1.23 0 0 1-1.39.32 2.8 2.8 0 0 1-1-.7l-1.31-1.36a6 6 0 0 1-1.13-1.35 6 6 0 0 1 1.39 1.08l1.41 1.28a2.5 2.5 0 0 0 .83.57.76.76 0 0 0 .82-.16.84.84 0 0 0 0-.88 5 5 0 0 0-.61-.86l-1.17-1.5a5.6 5.6 0 0 1-.99-1.47" style="fill:#aa6550"/><path d="M376.87 252.58c0-.09.63-.21 1.55.07l-.29.25a4.4 4.4 0 0 1-.07-1.75 4.45 4.45 0 0 1 1-2.13c.39-.46.72-.64.76-.59a9 9 0 0 0-1.2 2.8 5.3 5.3 0 0 0 0 1.58l.05.4-.34-.15c-.86-.34-1.47-.38-1.46-.48" style="fill:#aa6550"/><path d="m447 237.88.12 38.37-15 .71-.6-9.19s-7.22 1.09-8.73-4.34c-1-3.47-.72-30.27-.72-30.27Z" style="fill:#b78876"/><path d="M418.42 236.94c1.11 2.3 6.39 6.49 6.39 6.49l2.39 6.39c2.07-1.62 4.85-1.53 5.38 2.11.38 2.64-2.89 3.17-2.89 3.17 1.9 3.24 3.19 5.86 6 8.94 3 3.34 4.68 3.67 7.94 3.73h3.59s7.34-6.14 5.89-22.3S437.09 234 433.62 230c-5.62-6.59-18.9-.71-15.2 6.94" style="fill:#263238"/><path d="M452.25 259a5.1 5.1 0 0 1-1.77-.08 9.2 9.2 0 0 1-4.29-2.2 23.4 23.4 0 0 1-4.33-5.73c-1.4-2.29-2.93-4.95-5.5-6.73s-5.66-2.09-8.29-2.63a15.7 15.7 0 0 1-6.69-2.55 7.17 7.17 0 0 1-2.68-4 4 4 0 0 1-.07-1.77 5.5 5.5 0 0 0 .15 1.75 7.16 7.16 0 0 0 2.69 3.88 15.7 15.7 0 0 0 6.64 2.47c2.62.53 5.7.87 8.37 2.65s4.15 4.51 5.54 6.8a23.7 23.7 0 0 0 4.27 5.72 9.33 9.33 0 0 0 4.2 2.23 7 7 0 0 0 1.3.16Z" style="fill:#455a64"/><path d="m453.1 245.84-.77-.24a13 13 0 0 0-2.26-.5 5 5 0 0 0-3.46.78 2.84 2.84 0 0 0-1.21 1.82 2.54 2.54 0 0 0 .7 2.29 2 2 0 0 0 1.21.48 2.46 2.46 0 0 0 1.33-.37 4.07 4.07 0 0 0 1.81-2.31 5.71 5.71 0 0 0-4.83-7.5 10.1 10.1 0 0 0-3.71.48 26.4 26.4 0 0 1-3.85.93 15.5 15.5 0 0 1-4.08 0 13.6 13.6 0 0 1-3.94-1.09 4.74 4.74 0 0 1-2.69-2.84 3.73 3.73 0 0 1 .91-3.63 3.2 3.2 0 0 1 3.52-.51 2.66 2.66 0 0 1 1.3 1.22 3 3 0 0 1 .28 1.72 3.93 3.93 0 0 1-1.75 2.74 5.65 5.65 0 0 1-3 .83 8.8 8.8 0 0 1-2.8-.43 10.1 10.1 0 0 1-4.12-2.54 10.4 10.4 0 0 1-2.1-3 11 11 0 0 1-.75-2.2c-.09-.52-.12-.8-.12-.8s.06.27.16.79a11.5 11.5 0 0 0 .78 2.17 10.3 10.3 0 0 0 2.11 3 9.9 9.9 0 0 0 4.08 2.48 8.5 8.5 0 0 0 2.76.42 5.5 5.5 0 0 0 2.86-.81 3.73 3.73 0 0 0 1.66-2.62 2.57 2.57 0 0 0-1.47-2.75 3 3 0 0 0-3.3.49 3.52 3.52 0 0 0-.86 3.42 4.58 4.58 0 0 0 2.59 2.71 13 13 0 0 0 3.91 1.03 15 15 0 0 0 4 0 25.6 25.6 0 0 0 3.82-.91 10.1 10.1 0 0 1 3.8-.49 5.91 5.91 0 0 1 5 7.76 4.27 4.27 0 0 1-1.9 2.39 2.6 2.6 0 0 1-1.41.38 2.07 2.07 0 0 1-1.31-.52 2.7 2.7 0 0 1-.73-2.42 3 3 0 0 1 1.27-1.9 5.16 5.16 0 0 1 3.54-.76 11 11 0 0 1 2.26.54c.5.16.76.27.76.27" style="fill:#455a64"/><path d="m434.08 443.62-4.88-6.27 11.69-9.23 7.25 9.1-.69.62c-3.08 2.72-15.88 13.65-18.55 14.7-2.98 1.17 5.18-8.92 5.18-8.92" style="fill:#ff725e"/><g style="opacity:.4"><path d="M430.23 448.72s-2.69 3.76-1.8 4 14.23-10.32 19.71-15.49l-.23-.25-15.46 12.44s-1.52-1.21-2.22-.7" style="fill:#fff"/></g><path d="M448.09 436.82a1.2 1.2 0 0 1-.18.18l-.55.49-2.05 1.77c-1.75 1.48-4.18 3.5-6.92 5.67s-5.26 4.08-7.1 5.43l-2.2 1.6-.6.42-.22.13.2-.16.58-.45 2.16-1.64c1.82-1.38 4.33-3.3 7.07-5.47s5.18-4.17 6.94-5.63l2.09-1.72.57-.47Z" style="fill:#263238"/><path d="M432.6 449.59a6 6 0 0 0-1.2-.7 5.8 5.8 0 0 0-1.36-.24 2 2 0 0 1 1.42.07 2 2 0 0 1 1.14.87M434.67 445.11c0 .05-.34 0-.73-.15s-.68-.28-.66-.33.34 0 .72.16a1.7 1.7 0 0 1 .67.32M435.22 443.86c0 .05-.29.08-.63.06s-.62-.08-.62-.13.28-.08.63-.05a1.36 1.36 0 0 1 .62.12M434.94 442.29s-.21.29-.55.56-.63.46-.66.42.22-.29.55-.56.63-.46.66-.42M434.53 441.35a2.22 2.22 0 0 1-1.3 1.2c0-.05.3-.27.66-.6s.6-.63.64-.6" style="fill:#263238"/><path d="M433.46 444.41a2.6 2.6 0 0 1-.75.59 6 6 0 0 1-.94.45 2.6 2.6 0 0 1-.61.18.58.58 0 0 1-.37-.09.37.37 0 0 1-.12-.39 1.75 1.75 0 0 1 2-.94 1.7 1.7 0 0 1 .64.3c.13.11.19.18.18.19a2.5 2.5 0 0 0-.85-.37 1.7 1.7 0 0 0-1 .09 1.5 1.5 0 0 0-.85.77c0 .18.11.29.31.26a4 4 0 0 0 .56-.15 9 9 0 0 0 .94-.41c.56-.28.84-.51.86-.48" style="fill:#263238"/><path d="M433.3 444.6s-.27-.09-.5-.45a1.6 1.6 0 0 1-.23-.72 1 1 0 0 1 .32-.87.38.38 0 0 1 .51.16 1.1 1.1 0 0 1 .14.44 3 3 0 0 1 0 .73 1.4 1.4 0 0 1-.19.65s0-.26.06-.66a3 3 0 0 0 0-.7c0-.24-.18-.58-.39-.46a.84.84 0 0 0-.24.71 1.55 1.55 0 0 0 .17.65 3.6 3.6 0 0 0 .35.52M445.32 433.81s-.36.23-.83.71a4.7 4.7 0 0 0-1.14 4.86c.22.64.47 1 .44 1s-.08-.07-.19-.23a5 5 0 0 1-.37-.73 4.7 4.7 0 0 1-.19-2.68 4.5 4.5 0 0 1 1.36-2.32 4 4 0 0 1 .65-.49.9.9 0 0 1 .27-.12M440.27 429.9a27 27 0 0 1 2 2.32c1.06 1.32 1.89 2.41 1.86 2.44a25 25 0 0 1-2-2.32 23 23 0 0 1-1.86-2.44M441.45 440.5a8 8 0 0 1-1.57 1.52 8.5 8.5 0 0 1-1.81 1.21s.77-.6 1.7-1.36 1.65-1.41 1.68-1.37" style="fill:#263238"/><path d="M443.74 438.68c.05 0 .07.21.13.45s.14.43.1.46-.21-.14-.28-.42.01-.5.05-.49M443.76 436.93c.05 0 .07.18 0 .4s-.08.39-.13.39-.07-.19-.05-.41.13-.39.18-.38M444.6 435.46s-.13.17-.25.36-.18.39-.23.38-.08-.24.07-.48.4-.31.41-.26M445.3 434.53v.25c0 .11-.16.19-.2.17s0-.14 0-.26.16-.18.2-.16" style="fill:#263238"/><path d="m445.06 433.51-11.83 9.04-1.09-1.43 12.43-8.42z" style="opacity:.30000000000000004"/><path d="M380.32 449.92v-7.95l14.9-.06.09 11.64-.93.06c-4.11.25-20.91.95-23.66.13-3.05-.92 9.6-3.82 9.6-3.82" style="fill:#ff725e"/><g style="opacity:.4"><path d="M374.14 451.56s-4.44 1.29-3.88 2 17.57.66 25.07 0v-.33l-19.84.25s-.49-1.89-1.35-1.92" style="fill:#fff"/></g><path d="M395.54 453.21h-1l-2.7.13c-2.29.09-5.45.18-8.94.2s-6.66 0-8.95-.11l-2.7-.1h-1 3.71c2.28 0 5.45.07 8.94.06s6.65-.09 8.93-.15l2.71-.07h1Z" style="fill:#263238"/><path d="M375.47 453.7a6.2 6.2 0 0 0-.52-1.29 5.8 5.8 0 0 0-.92-1 2 2 0 0 1 1.08.94 2 2 0 0 1 .36 1.35M379.85 451.45s-.25-.23-.47-.57-.36-.64-.32-.66.25.22.47.57.36.64.32.66M381.06 450.81s-.27-.12-.53-.35-.44-.44-.41-.48.27.12.53.35.44.44.41.48M381.81 449.4a1.6 1.6 0 0 1-.77.1 1.7 1.7 0 0 1-.78-.08 1.8 1.8 0 0 1 .77-.1 1.9 1.9 0 0 1 .78.08M382.07 448.41a1.57 1.57 0 0 1-.87.25 1.5 1.5 0 0 1-.89-.11 4.6 4.6 0 0 1 .88-.07 5 5 0 0 1 .88-.07" style="fill:#263238"/><path d="M379.34 450.16a2.9 2.9 0 0 1-1 0 5.2 5.2 0 0 1-1-.22 2.7 2.7 0 0 1-.58-.23.56.56 0 0 1-.24-.3.37.37 0 0 1 .15-.38 1.75 1.75 0 0 1 2.17.5 1.7 1.7 0 0 1 .31.64.6.6 0 0 1 0 .26 2.7 2.7 0 0 0-.44-.82 1.77 1.77 0 0 0-.82-.53 1.46 1.46 0 0 0-1.14.09c-.15.11-.09.29.08.39a2.4 2.4 0 0 0 .54.22 6 6 0 0 0 1 .26c.63.09.97.09.97.12" style="fill:#263238"/><path d="M379.09 450.2a1 1 0 0 1-.11-.66 1.55 1.55 0 0 1 .26-.7 1 1 0 0 1 .79-.49.37.37 0 0 1 .3.44 1.1 1.1 0 0 1-.16.43 2.9 2.9 0 0 1-.45.58c-.3.29-.53.41-.55.39s.19-.17.46-.48a3.5 3.5 0 0 0 .4-.57c.13-.21.21-.57 0-.61s-.48.21-.62.4a1.54 1.54 0 0 0-.27.63 6 6 0 0 0-.05.64M395.21 449.13h-1.1a4.9 4.9 0 0 0-2.39 1 4.73 4.73 0 0 0-1.49 2.13 10 10 0 0 0-.28 1.07.8.8 0 0 1 0-.3 3.5 3.5 0 0 1 .15-.81 4.75 4.75 0 0 1 1.5-2.23 4.57 4.57 0 0 1 2.5-1 3.5 3.5 0 0 1 .82 0 .7.7 0 0 1 .29.14" style="fill:#263238"/><path d="M393.64 442.94a25 25 0 0 1 .15 3.06 28 28 0 0 1 0 3.06 24 24 0 0 1-.14-3.06 27 27 0 0 1-.01-3.06M388 452a8.6 8.6 0 0 1-2.17.22 9 9 0 0 1-2.18-.16c0-.05 1 0 2.18 0S388 452 388 452M391 452s-.07.21-.17.43-.16.42-.21.42-.07-.24 0-.49.31-.36.38-.36M392.06 450.62s-.06.19-.21.34-.31.26-.35.23.06-.2.22-.35.28-.26.34-.22M393.63 450s-.21 0-.43.13-.37.2-.41.16.08-.24.36-.33.5-.02.48.04M394.75 449.68c0 .05-.07.13-.19.18s-.24.05-.26 0 .07-.12.19-.17.24-.05.26-.01" style="fill:#263238"/><path d="m395.33 448.53-15.02.02.01-1.8 14.95-.09z" style="opacity:.30000000000000004"/><path d="m417.09 312.64-6 18c-1.61 4.85-5.85 5.68-11 5.68H367v-7.44l30.32-4.33 7.22-18.46ZM363.33 327.29l-2.63-1.24s-2.84-5.49-3.49-5.27-.85 1.83.29 4.36l-3.49-1s-7.59 3.5-7.25 4a1.75 1.75 0 0 0 2.61.75c1.65-.85 3.81-1.84 3.81-1.84l4.09 1.17-5.27.67-5 4.51a2.43 2.43 0 0 0 3-.08l13 2.74 4 .22v-7.44Z" style="fill:#b78876"/><path d="M350.07 333.29c.06 0 .3-.34.76-.85a3.6 3.6 0 0 1 .94-.72 3.9 3.9 0 0 1 1.39-.37 18.2 18.2 0 0 0 3.86-.66 19.6 19.6 0 0 0-3.91.26 3.9 3.9 0 0 0-1.53.45 3.3 3.3 0 0 0-1 .86 2.5 2.5 0 0 0-.51 1.03M352.09 333.81c.05 0 .09-.27.45-.35s.95-.13 1.56-.19a14 14 0 0 0 2.26-.23 4.53 4.53 0 0 0-2.3-.18 7 7 0 0 0-1.62.34.65.65 0 0 0-.39.4c-.05.14.01.21.04.21" style="fill:#aa6550"/><path d="m419.9 308.72-2.55 8.65-16.2-7.37c.59-1.81 3.27-9.87 8.39-22.66a22 22 0 0 1 16.79-13.54 96 96 0 0 1 15.51-1.52c9.09.1 22.46 5.78 24.25 14.68 1.38 6.8.05 18.8.05 33.38L465 348.23l-46.55 1.57Z" style="fill:#ff725e"/><path d="M466.09 313.92c-5.66 1.16-11.48 0-17.25-.35-3.5-.21-7.38-.59-10.15 1.56-2.19 1.71-3.07 4.58-3.71 7.28-2.41 10.32-2.85 17.23-3.39 27.81l28 1.7Z" style="opacity:.30000000000000004"/><path d="M418.71 278.49s.47.07 1.24.37a6.4 6.4 0 0 1 2.68 2.17 9 9 0 0 1 1.6 4.85 30 30 0 0 1-.49 6.38 108 108 0 0 1-2.6 11.41c-.38 1.4-.7 2.55-.94 3.43a7.4 7.4 0 0 0-.3 1.27 7 7 0 0 0 .45-1.23c.26-.8.63-1.95 1.06-3.39a87 87 0 0 0 2.73-11.43 29.3 29.3 0 0 0 .46-6.47 9.2 9.2 0 0 0-1.74-5 6.4 6.4 0 0 0-2.86-2.15 5.5 5.5 0 0 0-.95-.22c-.22 0-.34-.01-.34.01M401.66 307.83a16 16 0 0 0 2.28 1.31c1.44.75 3.45 1.74 5.71 2.76s4.34 1.87 5.86 2.45a14 14 0 0 0 2.49.84 19 19 0 0 0-2.39-1.1c-1.48-.65-3.54-1.54-5.79-2.56s-4.28-2-5.75-2.65a17.6 17.6 0 0 0-2.41-1.05M394.24 351.92a16.59 16.59 0 0 0-6.77 22.22L428 443.7l18.69-11.29-31.46-62.8L438 354.72" style="fill:#263238"/><path d="m443.57 348.47-55.62 2a16.59 16.59 0 0 0-16 16.84l2.31 79.43h23.39l-.78-75.1 46.7-1.23Z" style="fill:#263238"/><path d="M396.87 374.27a4 4 0 0 1 .07.74q0 .8.09 2.1c.07 1.83.14 4.48.21 7.76.14 6.55.23 15.6.28 25.59s.1 19 .13 25.59c0 3.24 0 5.87.05 7.76v2.11a4 4 0 0 1 0 .74 4 4 0 0 1-.07-.74c0-.53-.05-1.23-.09-2.11-.07-1.83-.14-4.48-.21-7.75-.14-6.55-.23-15.6-.28-25.6s-.1-19-.13-25.59V375a4 4 0 0 1-.05-.73" style="fill:#455a64"/><path d="M467.66 298.07h-16.83a12.26 12.26 0 0 0-12.26 12.26V369H405a8.49 8.49 0 0 0-8.49 8.49h76.75a7 7 0 0 0 6.71-7v-60.16a12.26 12.26 0 0 0-12.31-12.26" style="fill:#455a64"/><path d="M443.46 300c.14 0 .26 17.25.26 38.53s-.12 38.53-.26 38.53-.26-17.25-.26-38.53.12-38.53.26-38.53" style="fill:#263238"/><path d="M441.33 439.14v-61.58h-5.47v61.58c-3.34 6.58-11.19 11-20.75 14.68h48.76c-9.87-4.02-18.87-7.11-22.54-14.68" style="fill:#455a64"/><path d="m133.27 431.16.16-.36.49-1.05a27.6 27.6 0 0 0 1.44-4.18 36.9 36.9 0 0 0-.13-16.15 87.5 87.5 0 0 0-3-10.85c-1.27-3.85-2.74-7.93-4-12.35a47.8 47.8 0 0 1-1.94-14.2c.18-5 1.67-10 3.3-15s3.32-9.88 3.83-14.8a22.54 22.54 0 0 0-2.72-13.67c-2.16-4-4.88-7.4-6.92-10.93a38 38 0 0 1-4.17-10.51 39.25 39.25 0 0 1-.26-16.28 30 30 0 0 1 1.7-5.75 3 3 0 0 1-.1.38c-.09.27-.2.63-.35 1.1a43 43 0 0 0-1 4.3A39.6 39.6 0 0 0 120 307a37.7 37.7 0 0 0 4.18 10.38c2 3.49 4.77 6.89 7 10.93a22.94 22.94 0 0 1 2.8 13.94c-.51 5-2.21 9.92-3.84 14.91s-3.1 10-3.29 14.89a47.8 47.8 0 0 0 1.9 14.06c1.19 4.39 2.64 8.48 3.9 12.34a85 85 0 0 1 2.94 10.91 36.54 36.54 0 0 1 0 16.27 24.3 24.3 0 0 1-1.59 4.17c-.23.43-.4.77-.54 1a1.5 1.5 0 0 1-.19.36" style="fill:#263238"/><path d="M126.61 321.07s-4.14-13.23 3.28-21a.46.46 0 0 1 .79.23c.39 2.2.89 8.86-4.07 20.77" style="fill:#ff725e"/><path d="M129.09 304.5a12.3 12.3 0 0 1-.28 2.44c-.28 1.68-.6 3.66-1 5.84s-.66 4.16-.92 5.84a14 14 0 0 1-.44 2.41 10.2 10.2 0 0 1 .07-2.46c.14-1.51.4-3.59.78-5.87s.77-4.34 1.1-5.83a10.2 10.2 0 0 1 .69-2.37" style="fill:#263238"/><path d="M131.47 352.29s2.53-13.63 12.72-17a.45.45 0 0 1 .58.57c-.67 2.14-3.34 8.22-13.3 16.43" style="fill:#ff725e"/><path d="M141.41 338.8a12 12 0 0 1-1.39 2l-3.56 4.72-3.55 4.72a12.5 12.5 0 0 1-1.52 1.93 10.3 10.3 0 0 1 1.22-2.14c.83-1.27 2-3 3.43-4.83s2.72-3.47 3.69-4.63a10.5 10.5 0 0 1 1.68-1.77" style="fill:#263238"/><path d="M128.71 386.49s-1.53-13.78 7.23-20a.46.46 0 0 1 .73.38c-.03 2.25-.81 8.88-7.96 19.62" style="fill:#ff725e"/><path d="M134.31 370.7a12 12 0 0 1-.74 2.34l-2 5.55c-.76 2.08-1.44 4-2 5.56a14 14 0 0 1-.89 2.28 10 10 0 0 1 .54-2.4c.42-1.46 1.08-3.45 1.88-5.62s1.59-4.11 2.19-5.5a10.5 10.5 0 0 1 1.02-2.21" style="fill:#263238"/><path d="M136.39 420.9s-1-13.83 7.94-19.7a.45.45 0 0 1 .71.4c-.11 2.22-1.13 8.81-8.65 19.3" style="fill:#ff725e"/><path d="M142.55 405.31a12.5 12.5 0 0 1-.83 2.32c-.64 1.58-1.4 3.43-2.23 5.47s-1.59 3.9-2.23 5.48a12.6 12.6 0 0 1-1 2.25 11 11 0 0 1 .63-2.38c.47-1.44 1.2-3.4 2.09-5.54s1.73-4.06 2.38-5.43a10.8 10.8 0 0 1 1.19-2.17" style="fill:#263238"/><path d="M120.66 309.45s-12.29-6.45-12.54-17.15a.46.46 0 0 1 .72-.4c1.83 1.26 6.89 5.62 11.82 17.55" style="fill:#ff725e"/><path d="M110.68 296a12.2 12.2 0 0 1 1.53 1.93l3.46 4.79 3.48 4.78a12.7 12.7 0 0 1 1.4 2 9.9 9.9 0 0 1-1.69-1.79c-1-1.16-2.26-2.82-3.61-4.7s-2.52-3.61-3.34-4.89a11 11 0 0 1-1.23-2.12" style="fill:#263238"/><path d="M133.86 337.87s-12.66-5.66-13.55-16.36a.45.45 0 0 1 .69-.43c1.9 1.15 7.21 5.18 12.86 16.79" style="fill:#ff725e"/><path d="M123.08 325a12.5 12.5 0 0 1 1.64 1.82l3.75 4.58c1.41 1.7 2.68 3.24 3.76 4.56a13.3 13.3 0 0 1 1.52 1.92 10.3 10.3 0 0 1-1.79-1.68c-1-1.1-2.43-2.68-3.89-4.48s-2.74-3.45-3.64-4.67a11 11 0 0 1-1.35-2.05" style="fill:#263238"/><path d="M126.57 369.58s-8.69-10.81-4.61-20.74a.45.45 0 0 1 .81-.07c1.17 1.89 4.07 7.9 3.8 20.81" style="fill:#ff725e"/><path d="M122.82 353.24a12.3 12.3 0 0 1 .63 2.38c.37 1.66.79 3.62 1.26 5.78s.9 4.1 1.27 5.77a13.2 13.2 0 0 1 .48 2.41 9.5 9.5 0 0 1-.83-2.32c-.43-1.46-.94-3.49-1.43-5.76s-.87-4.32-1.11-5.81a11 11 0 0 1-.27-2.45" style="fill:#263238"/><path d="M135.18 406.89s-12.56-5.89-13.27-16.59a.46.46 0 0 1 .7-.42c1.88 1.18 7.13 5.3 12.57 17.01" style="fill:#ff725e"/><path d="M124.62 393.87a12.7 12.7 0 0 1 1.61 1.86l3.68 4.63c1.37 1.73 2.62 3.29 3.68 4.62a14 14 0 0 1 1.49 2 10.8 10.8 0 0 1-1.77-1.72c-1-1.12-2.38-2.72-3.81-4.54s-2.68-3.49-3.56-4.73a11 11 0 0 1-1.32-2.12M160.2 352.36v1.2q-.06 1.24-.15 3.36c-.16 3-.39 7.08-.66 12-.9 5-3.45 10.57-6.89 16-2.52 4-5.15 7.6-7.43 11a77 77 0 0 0-5.57 9.22 38.5 38.5 0 0 0-2.61 6.76c-.22.83-.39 1.47-.48 1.91a3.7 3.7 0 0 1-.19.67 3.3 3.3 0 0 1 .08-.69c.07-.45.2-1.1.39-1.94a35.8 35.8 0 0 1 2.48-6.87 72.5 72.5 0 0 1 5.5-9.32c2.26-3.39 4.89-7 7.39-11 3.42-5.37 6-10.85 6.89-15.79.34-4.93.63-9 .84-12 .11-1.4.2-2.52.27-3.35 0-.35.07-.64.09-.88a1.2 1.2 0 0 1 .05-.28" style="fill:#263238"/><path d="M152.72 383.9s5.32-12.8-1.37-21.19a.45.45 0 0 0-.8.15c-.55 2.14-1.69 8.73 2.17 21.04" style="fill:#ff725e"/><path d="M151.76 367.17a11.4 11.4 0 0 1 .42 2.42c.19 1.51.4 3.59.56 5.9s.25 4.41.24 5.92a11 11 0 0 1-.14 2.46 12.7 12.7 0 0 1-.22-2.44c-.12-1.7-.25-3.7-.4-5.9s-.29-4.2-.41-5.9a11.5 11.5 0 0 1-.05-2.46" style="fill:#263238"/><path d="M152.72 383.9s5.32-12.8-1.37-21.19a.45.45 0 0 0-.8.15c-.55 2.14-1.69 8.73 2.17 21.04" style="opacity:.30000000000000004"/><path d="M136.25 414.76s4.26-13.19-3.09-21a.46.46 0 0 0-.79.22c-.37 2.17-.98 8.82 3.88 20.78" style="fill:#ff725e"/><path d="M133.92 398.17a10.7 10.7 0 0 1 .62 2.38c.31 1.48.69 3.54 1 5.83s.6 4.37.72 5.88a10 10 0 0 1 0 2.46 14 14 0 0 1-.41-2.42c-.25-1.68-.55-3.66-.87-5.84s-.63-4.17-.89-5.85a12 12 0 0 1-.17-2.44" style="fill:#263238"/><path d="M136.25 414.76s4.26-13.19-3.09-21a.46.46 0 0 0-.79.22c-.37 2.17-.98 8.82 3.88 20.78" style="opacity:.30000000000000004"/><path d="M159.5 368.25s11.36-7.95 10.21-18.62a.46.46 0 0 0-.76-.3c-1.65 1.49-6.1 6.46-9.45 18.92" style="fill:#ff725e"/><path d="M159.5 368.25s11.36-7.95 10.21-18.62a.46.46 0 0 0-.76-.3c-1.65 1.49-6.1 6.46-9.45 18.92" style="opacity:.30000000000000004"/><path d="M167.66 353.61a11.3 11.3 0 0 1-.95 2.27c-.64 1.37-1.58 3.25-2.68 5.28s-2.16 3.85-3 5.13a9.6 9.6 0 0 1-1.44 2 15 15 0 0 1 1.13-2.18c.82-1.49 1.77-3.24 2.83-5.18s2-3.7 2.82-5.2a11.8 11.8 0 0 1 1.29-2.12" style="fill:#263238"/><path d="M140.83 401.68s13.7-2.14 17.37-12.22a.46.46 0 0 0-.55-.61c-2.14.62-8.33 3.15-16.82 12.83" style="fill:#ff725e"/><path d="M140.83 401.68s13.7-2.14 17.37-12.22a.46.46 0 0 0-.55-.61c-2.14.62-8.33 3.15-16.82 12.83" style="opacity:.30000000000000004"/><path d="M154.6 392.13a11 11 0 0 1-1.85 1.63c-1.18.94-2.85 2.21-4.74 3.55s-3.63 2.5-4.92 3.3a9.8 9.8 0 0 1-2.18 1.15 12.3 12.3 0 0 1 2-1.46l4.82-3.41 4.82-3.43a12.7 12.7 0 0 1 2.05-1.33" style="fill:#263238"/><path d="m127.76 426.9-4 26.9h24.91l-3.23-26.9z" style="fill:#455a64"/><path d="M146.43 435.23a95 95 0 0 1-10 .26 95 95 0 0 1-10-.26 98 98 0 0 1 10-.26 98 98 0 0 1 10 .26M146.93 437.37a102 102 0 0 1-10.38.26 101 101 0 0 1-10.37-.26c0-.14 4.64-.26 10.37-.26s10.38.12 10.38.26" style="fill:#263238"/></svg>