<svg xmlns="http://www.w3.org/2000/svg" width="1200" height="720" fill="none" viewBox="0 0 1200 720"><path fill="#0b1020" d="M0 0h1200v720H0z"/><path stroke="#24304a" stroke-opacity=".42" d="M0 80h1200M0 160h1200M0 240h1200M0 320h1200M0 400h1200M0 480h1200M0 560h1200M0 640h1200M80 0v720M160 0v720M240 0v720M320 0v720M400 0v720M480 0v720M560 0v720M640 0v720M720 0v720M800 0v720M880 0v720M960 0v720m80-720v720m80-720v720"/><circle cx="220" cy="150" r="150" fill="#7cc7ff" fill-opacity=".12"/><circle cx="960" cy="210" r="190" fill="#7ee787" fill-opacity=".1"/><circle cx="710" cy="590" r="220" fill="#ffd166" fill-opacity=".08"/></svg>